<?xml version="1.0" encoding="UTF-8" standalone="no"?>
<svg
   xmlns:dc="http://purl.org/dc/elements/1.1/"
   xmlns:cc="http://creativecommons.org/ns#"
   xmlns:rdf="http://www.w3.org/1999/02/22-rdf-syntax-ns#"
   xmlns:svg="http://www.w3.org/2000/svg"
   xmlns="http://www.w3.org/2000/svg"
   xmlns:sodipodi="http://sodipodi.sourceforge.net/DTD/sodipodi-0.dtd"
   xmlns:inkscape="http://www.inkscape.org/namespaces/inkscape"
   version="1.1"
   x="0px"
   y="0px"
   viewBox="0 0 90 112.5"
   enable-background="new 0 0 90 90"
   xml:space="preserve"
   id="svg3404"
   inkscape:version="0.91 r13725"
   sodipodi:docname="logo.svg"><metadata
     id="metadata3416"><rdf:RDF><cc:Work
         rdf:about=""><dc:format>image/svg+xml</dc:format><dc:type
           rdf:resource="http://purl.org/dc/dcmitype/StillImage" /></cc:Work></rdf:RDF></metadata><defs
     id="defs3414" /><sodipodi:namedview
     pagecolor="#ffffff"
     bordercolor="#666666"
     borderopacity="1"
     objecttolerance="10"
     gridtolerance="10"
     guidetolerance="10"
     inkscape:pageopacity="0"
     inkscape:pageshadow="2"
     inkscape:window-width="1920"
     inkscape:window-height="1023"
     id="namedview3412"
     showgrid="false"
     inkscape:zoom="7.3955556"
     inkscape:cx="45"
     inkscape:cy="56.25"
     inkscape:window-x="0"
     inkscape:window-y="27"
     inkscape:window-maximized="1"
     inkscape:current-layer="svg3404" /><path
     d="M69.9,41.4c0-6.6-5.3-11.9-11.9-11.9c0.6-0.9,1.1-1.8,1.4-2.8l2-5.7c0.2-0.6-0.4-1.2-1-1L55,21.8c-2.3,0.8-4.3,2.2-5.8,4.1  c-0.2-1.2-0.5-2.3-1.1-3.4l-2.7-5.7c-0.3-0.6-1.2-0.6-1.5,0l-2.7,5.4c-0.5,1-0.8,2-1.1,3c-1.4-1.5-3.2-2.7-5.2-3.4L29.6,20  c-0.6-0.2-1.2,0.4-1,1l2,5.7c0.4,1,0.9,2,1.4,2.8c-6.6,0-11.9,5.3-11.9,11.9c0,4.1,2.1,7.8,5.3,9.9c-0.4,1.2-0.7,2.5-0.7,3.8  c0,5.4,3.9,10,9,11c0,0.1,0,0.2,0,0.3c0,6.2,5,11.2,11.2,11.2c6.2,0,11.2-5,11.2-11.2c0-0.1,0-0.2,0-0.3c5.1-1,9-5.5,9-11  c0-1.3-0.2-2.6-0.7-3.8C67.7,49.2,69.9,45.5,69.9,41.4z"
     id="path3406" /></svg>